<?xml version="1.0" encoding="UTF-8"?>
<svg id="_레이어_2" data-name="레이어 2" xmlns="http://www.w3.org/2000/svg" viewBox="0 0 70.89 23.83">
  <defs>
    <style>
      .cls-1 {
        fill: #fff;
      }
    </style>
  </defs>
  <g id="_레이어_1-2" data-name="레이어 1">
    <path class="cls-1" d="M6.56.06c-.47.18-1.25,1.15-1.71,2.11-.62,1.33-.9,2.51-.9,3.87,0,.98.06,1.3.37,2.01.21.44.54,1,.75,1.22.47.5,1.34.9,1.94.92.37,0,.44.06.44.35,0,.19-.12.65-.26,1.04-.61,1.59-1.84,2.5-3.47,2.5-1.15,0-1.98-.37-2.29-1.03-.37-.79-.29-1.28.35-2.05.43-.5.6-.83.65-1.29.06-.55.03-.64-.26-.73-.79-.29-1.77.44-2.08,1.53-.08.33-.12.96-.08,1.4.21,2.27,1.91,3.44,4.74,3.24,1.55-.11,2.36-.42,3.2-1.28.89-.87,1.26-1.86,1.44-3.66.15-1.53.18-7.36.06-8.93-.1-1.05-.1-1.07-.53-1.12C7.95,0,6.82-.05,6.56.06ZM7.42,2.03c.08.11.11,1.47.07,3.4-.06,2.99-.08,3.23-.32,3.3-.46.15-1.01-.24-1.37-.97-.32-.62-.35-.86-.35-2.36,0-1.8.15-2.45.72-3.12.36-.44,1-.57,1.25-.25ZM24.18.44c-.04.11-.08.53-.08.92s-.04,1.14-.1,1.65l-.08.94h-.64c-.62,0-1.64.19-1.77.32-.03.04,0,.19.08.35.14.25.43.36,1.93.67l.31.06-.03,3.3c-.04,2.88-.01,3.4.22,4.15.44,1.47,1.46,2.36,2.48,2.16.51-.1,1.19-.83,1.65-1.77.21-.46.39-.71.39-.55,0,.46.65,1.69,1,1.93.18.12.67.28,1.07.36,1.19.22,1.89-.28,2.59-1.89l.22-.54.12.4c.15.55.9,1.29,1.4,1.39.54.11,1.26-.21,1.64-.72l.32-.43.29.58c.39.75.8,1.04,1.8,1.22.73.12.86.12,1.18-.12.19-.14.53-.57.73-.94l.39-.68v1.65l-1.03,1.01c-1.14,1.11-1.97,2.56-2.37,4.13-.68,2.68.18,3.85,2.83,3.87,1.14.01,1.15.01,1.54-.44.65-.78.75-1.36.83-4.88l.07-3.26h.44c.25,0,.53-.08.62-.18.15-.15.12-.24-.15-.46-.18-.14-.49-.26-.68-.26h-.35l.07-2.26c.06-1.73.12-2.36.31-2.7l.24-.46-.46-.18-.46-.19v-1.25c0-1.19-.03-1.28-.39-1.66-.21-.22-.65-.47-.97-.57-.32-.08-.87-.29-1.23-.46-.76-.35-1.16-.28-1.83.31-.94.83-1.41,2.47-1.59,5.48-.11,1.93-.32,2.61-.85,2.77-.39.12-.65-.12-.83-.75-.18-.68-.18-2.25.03-3.02.15-.61.14-.65-.19-.93-.32-.26-.36-.42-.42-1.44-.08-1.46-.29-1.75-1.58-2.27-2.58-1.05-3.87.11-4.35,3.97-.07.6-.19,1.16-.26,1.25s-.24.58-.35,1.1c-.28,1.16-.67,1.97-1.14,2.26-.33.22-.36.22-.62-.04-.42-.42-.54-1.72-.46-4.62.1-3.63.04-3.42.97-3.55.43-.04,1.18-.1,1.66-.1.96-.01,1.1-.14.61-.58-.22-.19-.6-.28-1.64-.33l-1.34-.08.03-.97c.01-.54.07-1.28.11-1.64.08-.65.07-.67-.37-.85-.78-.31-1.47-.37-1.55-.12h0ZM40.83,6.22c.36.32.39.4.37,1.36-.03,1.87-.39,3.98-.85,4.89-.32.64-.89,1.18-1.25,1.18-.18,0-.42-.15-.55-.37-.37-.55-.36-4.21.01-5.31.36-1.08.75-1.66,1.25-1.89q.57-.25,1.01.14ZM32.81,6.51c.37.49.51,1.5.25,1.9-.11.18-.26.98-.35,1.8-.21,1.86-.49,2.83-.98,3.33-.58.57-1.07.53-1.34-.14-.54-1.26-.32-4.91.39-6.28.5-.98,1.51-1.29,2.04-.61ZM41.15,20.49c-.25,1.61-.85,2.44-1.61,2.26-.72-.18-.94-1.48-.54-3.06.31-1.15,1.04-2.66,1.68-3.4l.54-.61.04,1.93c.01,1.07-.03,2.37-.11,2.88Z"/>
    <path class="cls-1" d="M51.62,4.97c-.71.73-1.12,1.84-1.33,3.62-.19,1.66-.75,3.85-1.14,4.56-.24.43-.39.57-.65.57-.55,0-.73-.76-.65-2.84.06-1.26.15-2.01.39-2.76l.32-1.03-.31-.25c-.19-.15-.67-.28-1.25-.33-.51-.04-1.03-.1-1.14-.11-.14-.03-.21-.21-.21-.58-.01-.79-.15-.94-.72-.86-.85.14-.85.17-.78,2.5.06,1.36.01,2.48-.1,3.15-.25,1.47-.24,1.58.04,1.64.37.08.73-.92,1.03-2.88l.26-1.73h.82l-.06,1.8c-.08,3.54.65,5.34,2.18,5.34.64,0,1.19-.43,1.59-1.25l.35-.68.22.6c.12.32.4.75.61.94.46.43,1.75.75,2.27.54.46-.17,1.05-.9,1.43-1.72l.29-.68.26.58c.67,1.48,2.19,1.59,3.09.24l.37-.57.08.72c.12.92.28,1.1,1.04,1.22,1.21.18,1.21.17,1.48-1.91.24-1.87.6-3.44.8-3.44.06,0,.12.93.15,2.07.04,1.79.08,2.11.31,2.36.54.6,1.89.5,1.89-.14,0-.49.55-2.5,1.01-3.66l.44-1.11.07,1.94c.06,1.72.11,2.02.42,2.62.19.39.51.82.72.97.51.37,1.5.37,2,0,1.07-.79,2.18-4.21,1.37-4.21-.25,0-.42.33-.55,1.04-.32,1.77-1.39,2.79-1.87,1.76-.29-.6-.33-2.98-.07-4.12.42-1.8.43-1.66-.12-2.08-.35-.26-.73-.42-1.18-.46l-.65-.06-.36.8c-.21.46-.67,1.66-1.04,2.69l-.67,1.87-.04-2.11-.04-2.12-.4-.21c-1.11-.57-1.69-.06-2.34,2.09-.25.83-.47,1.57-.5,1.65-.03.07-.06-1.05-.06-2.52-.01-1.65-.07-2.69-.15-2.75s-.49-.12-.89-.17l-.75-.08-.06,2.62c-.06,2.2-.11,2.76-.36,3.54-.54,1.62-1.23,2.12-1.64,1.16-.24-.57-.26-2.66-.04-3.47.14-.5.12-.57-.19-.83-.29-.24-.35-.44-.43-1.37-.11-1.23-.32-1.76-.8-1.97-1.46-.68-1.71-.75-2.43-.75s-.82.03-1.36.61h0ZM54.32,6.3c.46.25.76,1.82.42,2.16-.07.07-.21.79-.28,1.58-.19,1.89-.5,2.95-.98,3.48-.51.54-1.08.51-1.36-.07-.47-1-.44-3.81.06-5.55.42-1.4,1.29-2.07,2.15-1.61ZM11.15,5.44c-.11.19-.4,6.77-.33,7.54.1.92.4,1.22,1.21,1.22.35,0,.71-.06.79-.11.1-.06.26-.62.39-1.28.26-1.29.68-2.65.98-3.19.18-.32.19-.19.21,1.32,0,1.84.19,2.48.83,2.81.46.24,1.33.12,1.83-.25q.42-.31.61-.03c.44.64,2.36,1.01,3.7.72,1.01-.21,1.62-.69,1.62-1.3s-.21-.86-1.65-2.02-1.68-1.47-1.68-2.15c0-1,1.23-1.59,1.95-.96.33.31.62.24,1.03-.24.29-.35.35-.55.32-1.01-.04-.47-.11-.6-.46-.76-.78-.37-3.31.31-4.21,1.14-.72.67-.89,1.69-.43,2.58.21.43.24.55.08.61-.1.04-.22.35-.28.67-.22,1.4-.96,2.36-1.46,1.87-.18-.19-.22-.61-.25-2.5-.01-1.73-.07-2.37-.24-2.69-.24-.46-.78-.67-1.19-.44-.35.18-.9,1.14-1.4,2.4l-.39,1v-2.25c-.01-2.18-.03-2.26-.32-2.45-.43-.26-1.18-.4-1.28-.25ZM20.43,12.03c.33.29.62.64.67.79.21.78-.93,1-1.82.35-.29-.21-.68-.49-.9-.61-.24-.14-.35-.29-.29-.43.04-.11.15-.55.24-.98l.15-.79.69.58c.37.31.94.8,1.26,1.1Z"/>
  </g>
</svg>